<?xml version="1.0" encoding="UTF-8" standalone="yes"?>
<svg width="512" zoomAndPan="disable" viewBox="0 0 384 383.999986" height="512" preserveAspectRatio="xMidYMid meet" version="1.2" baseProfile="tiny-ps" xmlns="http://www.w3.org/2000/svg">
  <title>bimi-svg-tiny-12-ps</title>
  <defs>
    <g/>
  </defs>
  <rect x="-38.4" width="460.8" fill="#ffffff" y="-38.399999" height="460.799983" fill-opacity="1"/>
  <rect x="-38.4" width="460.8" fill="#ffffff" y="-38.399999" height="460.799983" fill-opacity="1"/>
  <g transform="matrix(1, 0, 0, 1, 11, 142)">
    <g>
      <g>
        <g fill="#000000" fill-opacity="1">
          <g transform="translate(0.141513, 38.615733)">
            <g>
              <path d="M 20.515625 -25.59375 L 20.515625 -21.328125 L 13.125 -21.328125 L 13.125 0 L 8.078125 0 L 8.078125 -21.328125 L 0.703125 -21.328125 L 0.703125 -25.59375 Z M 20.515625 -25.59375 "/>
            </g>
          </g>
        </g>
      </g>
      <g fill="#000000" fill-opacity="1">
        <g transform="translate(30.810314, 38.615733)">
          <g>
            <path d="M 8.390625 -11.234375 L 8.390625 -4.234375 L 20.59375 -4.234375 L 20.59375 0 L 3.328125 0 L 3.328125 -25.59375 L 20.3125 -25.59375 L 20.3125 -21.359375 L 8.390625 -21.359375 L 8.390625 -15.359375 L 18.8125 -15.359375 L 18.8125 -11.234375 Z M 8.390625 -11.234375 "/>
          </g>
        </g>
      </g>
      <g fill="#000000" fill-opacity="1">
        <g transform="translate(61.899034, 38.615733)">
          <g>
            <path d="M 13.984375 0.375 C 11.628906 0.375 9.550781 -0.113281 7.75 -1.09375 C 5.957031 -2.082031 4.550781 -3.554688 3.53125 -5.515625 C 2.519531 -7.484375 2.015625 -9.910156 2.015625 -12.796875 C 2.015625 -15.671875 2.519531 -18.09375 3.53125 -20.0625 C 4.550781 -22.03125 5.957031 -23.503906 7.75 -24.484375 C 9.550781 -25.460938 11.628906 -25.953125 13.984375 -25.953125 C 16.441406 -25.953125 18.53125 -25.46875 20.25 -24.5 C 21.976562 -23.539062 23.207031 -22.078125 23.9375 -20.109375 L 20.25 -17.859375 L 19.8125 -17.875 C 19.257812 -19.195312 18.515625 -20.144531 17.578125 -20.71875 C 16.640625 -21.300781 15.441406 -21.59375 13.984375 -21.59375 C 11.859375 -21.59375 10.203125 -20.890625 9.015625 -19.484375 C 7.828125 -18.078125 7.234375 -15.847656 7.234375 -12.796875 C 7.234375 -9.742188 7.828125 -7.515625 9.015625 -6.109375 C 10.203125 -4.710938 11.859375 -4.015625 13.984375 -4.015625 C 17.304688 -4.015625 19.34375 -5.628906 20.09375 -8.859375 L 20.53125 -8.859375 L 24.25 -6.90625 C 23.550781 -4.476562 22.351562 -2.65625 20.65625 -1.4375 C 18.96875 -0.226562 16.742188 0.375 13.984375 0.375 Z M 13.984375 0.375 "/>
          </g>
        </g>
      </g>
      <g fill="#000000" fill-opacity="1">
        <g transform="translate(96.452294, 38.615733)">
          <g>
            <path d="M 19.84375 -15.96875 L 19.84375 -25.59375 L 24.890625 -25.59375 L 24.890625 0 L 19.84375 0 L 19.84375 -11.65625 L 8.390625 -11.65625 L 8.390625 0 L 3.328125 0 L 3.328125 -25.59375 L 8.390625 -25.59375 L 8.390625 -15.96875 Z M 19.84375 -15.96875 "/>
          </g>
        </g>
      </g>
      <g fill="#000000" fill-opacity="1">
        <g transform="translate(134.137615, 38.615733)">
          <g>
            <path d="M 3.328125 0 L 3.328125 -25.59375 L 14.25 -25.59375 C 15.820312 -25.59375 17.148438 -25.34375 18.234375 -24.84375 C 19.328125 -24.34375 20.15625 -23.632812 20.71875 -22.71875 C 21.28125 -21.8125 21.5625 -20.734375 21.5625 -19.484375 C 21.5625 -18.347656 21.285156 -17.347656 20.734375 -16.484375 C 20.191406 -15.617188 19.40625 -14.925781 18.375 -14.40625 L 18.375 -14.03125 C 19.988281 -13.613281 21.234375 -12.847656 22.109375 -11.734375 C 22.984375 -10.628906 23.421875 -9.273438 23.421875 -7.671875 C 23.421875 -5.210938 22.679688 -3.316406 21.203125 -1.984375 C 19.722656 -0.660156 17.53125 0 14.625 0 Z M 13.203125 -15.390625 C 15.554688 -15.390625 16.734375 -16.445312 16.734375 -18.5625 C 16.734375 -19.65625 16.441406 -20.46875 15.859375 -21 C 15.273438 -21.53125 14.390625 -21.796875 13.203125 -21.796875 L 8.390625 -21.796875 L 8.390625 -15.390625 Z M 14.125 -4.015625 C 16.914062 -4.015625 18.3125 -5.28125 18.3125 -7.8125 C 18.3125 -10.351562 16.914062 -11.625 14.125 -11.625 L 8.390625 -11.625 L 8.390625 -4.015625 Z M 14.125 -4.015625 "/>
          </g>
        </g>
      </g>
      <g fill="#000000" fill-opacity="1">
        <g transform="translate(168.620884, 38.615733)">
          <g>
            <path d="M 24.5625 0 L 19.234375 0 L 17.3125 -5.890625 L 7.515625 -5.890625 L 5.578125 0 L 0.390625 0 L 9.21875 -25.59375 L 15.71875 -25.59375 Z M 12.15625 -20.25 L 8.875 -10.15625 L 15.90625 -10.15625 L 12.59375 -20.25 Z M 12.15625 -20.25 "/>
          </g>
        </g>
      </g>
      <g fill="#000000" fill-opacity="1">
        <g transform="translate(203.016672, 38.615733)">
          <g>
            <path d="M 8.390625 -25.59375 L 8.390625 -4.234375 L 19.875 -4.234375 L 19.875 0 L 3.328125 0 L 3.328125 -25.59375 Z M 8.390625 -25.59375 "/>
          </g>
        </g>
      </g>
      <g fill="#000000" fill-opacity="1">
        <g transform="translate(233.388008, 38.615733)">
          <g>
            <path d="M 24.5625 0 L 19.234375 0 L 17.3125 -5.890625 L 7.515625 -5.890625 L 5.578125 0 L 0.390625 0 L 9.21875 -25.59375 L 15.71875 -25.59375 Z M 12.15625 -20.25 L 8.875 -10.15625 L 15.90625 -10.15625 L 12.59375 -20.25 Z M 12.15625 -20.25 "/>
          </g>
        </g>
      </g>
      <g fill="#000000" fill-opacity="1">
        <g transform="translate(267.783796, 38.615733)">
          <g>
            <path d="M 8.21875 0 L 3.328125 0 L 3.328125 -25.59375 L 9.125 -25.59375 L 19.390625 -9.09375 L 19.84375 -9.171875 L 19.84375 -25.59375 L 24.71875 -25.59375 L 24.71875 0 L 19.53125 0 L 8.65625 -17.609375 L 8.21875 -17.53125 Z M 8.21875 0 "/>
          </g>
        </g>
      </g>
      <g fill="#000000" fill-opacity="1">
        <g transform="translate(305.294135, 38.615733)">
          <g>
            <path d="M 13.984375 0.375 C 11.628906 0.375 9.550781 -0.113281 7.75 -1.09375 C 5.957031 -2.082031 4.550781 -3.554688 3.53125 -5.515625 C 2.519531 -7.484375 2.015625 -9.910156 2.015625 -12.796875 C 2.015625 -15.671875 2.519531 -18.09375 3.53125 -20.0625 C 4.550781 -22.03125 5.957031 -23.503906 7.75 -24.484375 C 9.550781 -25.460938 11.628906 -25.953125 13.984375 -25.953125 C 16.441406 -25.953125 18.53125 -25.46875 20.25 -24.5 C 21.976562 -23.539062 23.207031 -22.078125 23.9375 -20.109375 L 20.25 -17.859375 L 19.8125 -17.875 C 19.257812 -19.195312 18.515625 -20.144531 17.578125 -20.71875 C 16.640625 -21.300781 15.441406 -21.59375 13.984375 -21.59375 C 11.859375 -21.59375 10.203125 -20.890625 9.015625 -19.484375 C 7.828125 -18.078125 7.234375 -15.847656 7.234375 -12.796875 C 7.234375 -9.742188 7.828125 -7.515625 9.015625 -6.109375 C 10.203125 -4.710938 11.859375 -4.015625 13.984375 -4.015625 C 17.304688 -4.015625 19.34375 -5.628906 20.09375 -8.859375 L 20.53125 -8.859375 L 24.25 -6.90625 C 23.550781 -4.476562 22.351562 -2.65625 20.65625 -1.4375 C 18.96875 -0.226562 16.742188 0.375 13.984375 0.375 Z M 13.984375 0.375 "/>
          </g>
        </g>
      </g>
      <g fill="#000000" fill-opacity="1">
        <g transform="translate(339.847394, 38.615733)">
          <g>
            <path d="M 8.390625 -11.234375 L 8.390625 -4.234375 L 20.59375 -4.234375 L 20.59375 0 L 3.328125 0 L 3.328125 -25.59375 L 20.3125 -25.59375 L 20.3125 -21.359375 L 8.390625 -21.359375 L 8.390625 -15.359375 L 18.8125 -15.359375 L 18.8125 -11.234375 Z M 8.390625 -11.234375 "/>
          </g>
        </g>
      </g>
    </g>
  </g>
  <g>
    <g>
      <g>
        <g>
          <path fill="#000000" d="M 209.03125 143.179688 C 209.546875 143.667969 210.359375 143.644531 210.84375 143.132812 C 211.332031 142.617188 211.308594 141.808594 210.796875 141.320312 C 200.105469 131.214844 183.25 131.667969 173.121094 142.335938 C 172.632812 142.847656 172.65625 143.660156 173.167969 144.148438 C 173.683594 144.632812 174.492188 144.613281 174.980469 144.097656 C 184.136719 134.457031 199.371094 134.046875 209.03125 143.179688 Z M 209.03125 143.179688 " fill-opacity="1" fill-rule="nonzero"/>
        </g>
      </g>
    </g>
  </g>
  <g>
    <g>
      <g>
        <g>
          <path fill="#000000" d="M 204.1875 148.296875 C 204.699219 148.78125 205.511719 148.761719 205.996094 148.246094 C 206.484375 147.734375 206.460938 146.921875 205.949219 146.4375 C 198.085938 139 185.6875 139.335938 178.234375 147.183594 C 177.75 147.695312 177.769531 148.507812 178.285156 148.992188 C 178.796875 149.480469 179.609375 149.457031 180.097656 148.945312 C 186.574219 142.125 197.351562 141.832031 204.1875 148.296875 Z M 204.1875 148.296875 " fill-opacity="1" fill-rule="nonzero"/>
        </g>
      </g>
    </g>
  </g>
  <g>
    <g>
      <g>
        <g>
          <path fill="#000000" d="M 201.148438 153.363281 C 201.636719 152.847656 201.617188 152.039062 201.101562 151.550781 C 196.066406 146.789062 188.125 147.003906 183.351562 152.027344 C 182.863281 152.542969 182.886719 153.355469 183.398438 153.839844 C 183.914062 154.328125 184.722656 154.304688 185.210938 153.792969 C 189.011719 149.792969 195.332031 149.621094 199.339844 153.410156 C 199.851562 153.898438 200.664062 153.875 201.148438 153.363281 Z M 201.148438 153.363281 " fill-opacity="1" fill-rule="nonzero"/>
        </g>
      </g>
    </g>
  </g>
  <g>
    <g>
      <g>
        <g>
          <path fill="#000000" d="M 195.742188 156.183594 C 193.816406 154.355469 190.777344 154.4375 188.949219 156.363281 C 187.125 158.289062 187.207031 161.332031 189.132812 163.15625 C 191.058594 164.980469 194.101562 164.902344 195.925781 162.972656 C 197.746094 161.046875 197.664062 158.007812 195.742188 156.183594 Z M 190.894531 161.296875 C 189.996094 160.445312 189.960938 159.027344 190.8125 158.128906 C 191.664062 157.226562 193.082031 157.191406 193.980469 158.042969 C 194.878906 158.894531 194.917969 160.3125 194.066406 161.210938 C 193.214844 162.109375 191.796875 162.148438 190.894531 161.296875 Z M 190.894531 161.296875 " fill-opacity="1" fill-rule="nonzero"/>
        </g>
      </g>
    </g>
  </g>
</svg>